ffmpeg started on 2025-06-23 at 19:39:54
Report written to "D:\Convert\FFMetrics\reports\ssim_report-6.txt"
Log level: 32
Command line:
ffmpeg -hide_banner -nostdin -i "G:\\\xc0\xed\xe8\xec\xe5\\[\xd2\xee\xef-4]\\\xcc\xee\xe6\xe5\xf2, \xff \xe2\xf1\xf2\xf0\xe5\xf7\xf3 \xf2\xe5\xe1\xff \xe2 \xef\xee\xe4\xe7\xe5\xec\xe5\xeb\xfc\xe5\\\xd2\xc2-1\\DanMachi_[02]_[AniLibria_TV]_[HDTVRip_720p]_HEVC.mkv" -i "G:\\\xc0\xed\xe8\xec\xe5\\[\xd2\xee\xef-4]\\\xcc\xee\xe6\xe5\xf2, \xff \xe2\xf1\xf2\xf0\xe5\xf7\xf3 \xf2\xe5\xe1\xff \xe2 \xef\xee\xe4\xe7\xe5\xec\xe5\xeb\xfc\xe5\\\xd2\xc2-1\\DanMachi_[02]_[AniLibria_TV]_[HDTVRip_720p].mkv" -lavfi "[0:v]settb=AVTB,setpts=PTS-STARTPTS,format=pix_fmts=yuv420p10,fps=24000/1001,scale=1280:720:flags=bicubic[main];[1:v]settb=AVTB,setpts=PTS-STARTPTS,format=pix_fmts=yuv420p,fps=24000/1001,scale=1280:720:flags=bicubic[ref];[main][ref]ssim=eof_action=endall:stats_file='D\\:/Convert/FFMetrics/logs/ssim_logfile-6.txt'" -f null -
Input #0, matroska,webm, from 'G:\Аниме\[Топ-4]\Может, я встречу тебя в подземелье\ТВ-1\DanMachi_[02]_[AniLibria_TV]_[HDTVRip_720p]_HEVC.mkv':
  Metadata:
    ENCODER         : Lavf61.7.100
  Duration: 00:23:41.78, start: -0.021000, bitrate: 826 kb/s
  Stream #0:0(jpn): Video: hevc (Main 10), yuv420p10le(tv, bt709, progressive), 1280x720 [SAR 1:1 DAR 16:9], 23.98 fps, 23.98 tbr, 1k tbn (default)
      Metadata:
        title           : Original [HorribleSubs]
        ENCODER         : Lavc61.19.100 libx265
        BPS             : 628477
        DURATION        : 00:23:41.713708375
        NUMBER_OF_FRAMES: 34087
        NUMBER_OF_BYTES : 111689273
        _STATISTICS_WRITING_APP: mkvpropedit v66.0.0 ('Josie') 64-bit
        _STATISTICS_WRITING_DATE_UTC: 2025-06-23 07:30:32
        _STATISTICS_TAGS: BPS DURATION NUMBER_OF_FRAMES NUMBER_OF_BYTES
  Stream #0:1(rus): Audio: aac (LC), 48000 Hz, stereo, fltp (default)
      Metadata:
        title           : Metacarmex & Say
        ENCODER         : Lavc61.19.100 aac
        BPS             : 193908
        DURATION        : 00:23:41.759000000
        NUMBER_OF_FRAMES: 66646
        NUMBER_OF_BYTES : 34461341
        _STATISTICS_WRITING_APP: mkvpropedit v66.0.0 ('Josie') 64-bit
        _STATISTICS_WRITING_DATE_UTC: 2025-06-23 07:30:32
        _STATISTICS_TAGS: BPS DURATION NUMBER_OF_FRAMES NUMBER_OF_BYTES
  Stream #0:2(rus): Subtitle: ass (ssa) (default)
      Metadata:
        title           : Надписи
        BPS             : 2
        DURATION        : 00:22:14.000000000
        NUMBER_OF_FRAMES: 4
        NUMBER_OF_BYTES : 402
        _STATISTICS_WRITING_APP: mkvpropedit v66.0.0 ('Josie') 64-bit
        _STATISTICS_WRITING_DATE_UTC: 2025-06-23 07:30:32
        _STATISTICS_TAGS: BPS DURATION NUMBER_OF_FRAMES NUMBER_OF_BYTES
  Stream #0:3(rus): Subtitle: ass (ssa)
      Metadata:
        title           : Полные
        BPS             : 149
        DURATION        : 00:23:33.840000000
        NUMBER_OF_FRAMES: 386
        NUMBER_OF_BYTES : 26369
        _STATISTICS_WRITING_APP: mkvpropedit v66.0.0 ('Josie') 64-bit
        _STATISTICS_WRITING_DATE_UTC: 2025-06-23 07:30:32
        _STATISTICS_TAGS: BPS DURATION NUMBER_OF_FRAMES NUMBER_OF_BYTES
Input #1, matroska,webm, from 'G:\Аниме\[Топ-4]\Может, я встречу тебя в подземелье\ТВ-1\DanMachi_[02]_[AniLibria_TV]_[HDTVRip_720p].mkv':
  Metadata:
    encoder         : libebml v1.4.2 + libmatroska v1.6.4
    creation_time   : 2025-01-14T16:48:57.000000Z
  Duration: 00:23:41.76, start: 0.000000, bitrate: 1972 kb/s
  Stream #1:0(jpn): Video: h264 (High), yuv420p(progressive), 1280x720, SAR 1:1 DAR 16:9, 23.98 fps, 23.98 tbr, 1k tbn (default)
      Metadata:
        title           : Original [HorribleSubs]
        BPS             : 1774578
        DURATION        : 00:23:41.714000000
        NUMBER_OF_FRAMES: 34087
        NUMBER_OF_BYTES : 315367917
        _STATISTICS_WRITING_APP: mkvmerge v66.0.0 ('Josie') 64-bit
        _STATISTICS_WRITING_DATE_UTC: 2025-01-14 16:48:57
        _STATISTICS_TAGS: BPS DURATION NUMBER_OF_FRAMES NUMBER_OF_BYTES
  Stream #1:1(rus): Audio: aac (LC), 48000 Hz, stereo, fltp (default)
      Metadata:
        title           : Metacarmex & Say
        BPS             : 192089
        DURATION        : 00:23:41.760000000
        NUMBER_OF_FRAMES: 66645
        NUMBER_OF_BYTES : 34138089
        _STATISTICS_WRITING_APP: mkvmerge v66.0.0 ('Josie') 64-bit
        _STATISTICS_WRITING_DATE_UTC: 2025-01-14 16:48:57
        _STATISTICS_TAGS: BPS DURATION NUMBER_OF_FRAMES NUMBER_OF_BYTES
  Stream #1:2(rus): Subtitle: ass (ssa) (default)
      Metadata:
        title           : Надписи
        BPS             : 2
        DURATION        : 00:22:14.000000000
        NUMBER_OF_FRAMES: 4
        NUMBER_OF_BYTES : 402
        _STATISTICS_WRITING_APP: mkvmerge v66.0.0 ('Josie') 64-bit
        _STATISTICS_WRITING_DATE_UTC: 2025-01-14 16:48:57
        _STATISTICS_TAGS: BPS DURATION NUMBER_OF_FRAMES NUMBER_OF_BYTES
  Stream #1:3(rus): Subtitle: ass (ssa)
      Metadata:
        title           : Полные
        BPS             : 149
        DURATION        : 00:23:33.840000000
        NUMBER_OF_FRAMES: 386
        NUMBER_OF_BYTES : 26369
        _STATISTICS_WRITING_APP: mkvmerge v66.0.0 ('Josie') 64-bit
        _STATISTICS_WRITING_DATE_UTC: 2025-01-14 16:48:57
        _STATISTICS_TAGS: BPS DURATION NUMBER_OF_FRAMES NUMBER_OF_BYTES
  Stream #1:4: Attachment: ttf
      Metadata:
        filename        : TkhO4vNj.ttf
        mimetype        : application/x-truetype-font
  Stream #1:5: Attachment: ttf
      Metadata:
        filename        : bonzai.ttf
        mimetype        : application/x-truetype-font
  Stream #1:6: Attachment: ttf
      Metadata:
        filename        : ChinaCyr.ttf
        mimetype        : application/x-truetype-font
  Stream #1:7: Attachment: ttf
      Metadata:
        filename        : OpenSans-Semibold.ttf
        mimetype        : application/x-truetype-font
Stream mapping:
  Stream #0:0 (hevc) -> settb:default
  Stream #1:0 (h264) -> settb:default
  ssim:default -> Stream #0:0 (wrapped_avframe)
  Stream #0:1 -> #0:1 (aac (native) -> pcm_s16le (native))
[swscaler @ 0000026881649900] No accelerated colorspace conversion found from yuv420p to bgr48le.
[swscaler @ 0000026881802740] No accelerated colorspace conversion found from yuv420p to bgr48le.
[swscaler @ 00000268818f0380] No accelerated colorspace conversion found from yuv420p to bgr48le.
[swscaler @ 00000268819d47c0] No accelerated colorspace conversion found from yuv420p to bgr48le.
[swscaler @ 0000026881b7f4c0] No accelerated colorspace conversion found from yuv420p to bgr48le.
[swscaler @ 0000026881cca040] No accelerated colorspace conversion found from yuv420p to bgr48le.
[swscaler @ 0000026881d2f740] No accelerated colorspace conversion found from yuv420p to bgr48le.
[swscaler @ 0000026881d93bc0] No accelerated colorspace conversion found from yuv420p to bgr48le.
[swscaler @ 0000026881dd68c0] No accelerated colorspace conversion found from yuv420p to bgr48le.
[swscaler @ 0000026881e39bc0] No accelerated colorspace conversion found from yuv420p to bgr48le.
[swscaler @ 0000026881ea6040] No accelerated colorspace conversion found from yuv420p to bgr48le.
[swscaler @ 0000026881f06840] No accelerated colorspace conversion found from yuv420p to bgr48le.
[swscaler @ 0000026885fd00c0] No accelerated colorspace conversion found from yuv420p to bgr48le.
[swscaler @ 0000026886058040] No accelerated colorspace conversion found from yuv420p to bgr48le.
[swscaler @ 00000268860b5040] No accelerated colorspace conversion found from yuv420p to bgr48le.
[swscaler @ 0000026886134040] No accelerated colorspace conversion found from yuv420p to bgr48le.
Output #0, null, to 'pipe:':
  Metadata:
    encoder         : Lavf61.7.100
  Stream #0:0: Video: wrapped_avframe, yuv420p10le(tv, bt709, progressive), 1280x720 [SAR 1:1 DAR 16:9], q=2-31, 200 kb/s, 23.98 fps, 23.98 tbn
      Metadata:
        encoder         : Lavc61.19.100 wrapped_avframe
  Stream #0:1(rus): Audio: pcm_s16le, 48000 Hz, stereo, s16, 1536 kb/s (default)
      Metadata:
        title           : Metacarmex & Say
        _STATISTICS_TAGS: BPS DURATION NUMBER_OF_FRAMES NUMBER_OF_BYTES
        BPS             : 193908
        DURATION        : 00:23:41.759000000
        NUMBER_OF_FRAMES: 66646
        NUMBER_OF_BYTES : 34461341
        _STATISTICS_WRITING_APP: mkvpropedit v66.0.0 ('Josie') 64-bit
        _STATISTICS_WRITING_DATE_UTC: 2025-06-23 07:30:32
        encoder         : Lavc61.19.100 pcm_s16le
frame=   86 fps=0.0 q=-0.0 size=N/A time=00:00:03.58 bitrate=N/A speed= 6.9x    frame=  174 fps=167 q=-0.0 size=N/A time=00:00:07.25 bitrate=N/A speed=6.96x    frame=  268 fps=173 q=-0.0 size=N/A time=00:00:11.17 bitrate=N/A speed=7.21x    frame=  360 fps=174 q=-0.0 size=N/A time=00:00:15.01 bitrate=N/A speed=7.26x    frame=  453 fps=175 q=-0.0 size=N/A time=00:00:18.89 bitrate=N/A speed=7.29x    frame=  530 fps=171 q=-0.0 size=N/A time=00:00:22.10 bitrate=N/A speed=7.13x    frame=  630 fps=174 q=-0.0 size=N/A time=00:00:26.27 bitrate=N/A speed=7.25x    frame=  727 fps=176 q=-0.0 size=N/A time=00:00:30.32 bitrate=N/A speed=7.34x    frame=  825 fps=177 q=-0.0 size=N/A time=00:00:34.40 bitrate=N/A speed=7.39x    frame=  926 fps=179 q=-0.0 size=N/A time=00:00:38.62 bitrate=N/A speed=7.48x    frame= 1022 fps=180 q=-0.0 size=N/A time=00:00:42.62 bitrate=N/A speed= 7.5x    frame= 1109 fps=179 q=-0.0 size=N/A time=00:00:46.25 bitrate=N/A speed=7.47x    frame= 1214 fps=181 q=-0.0 size=N/A time=00:00:50.63 bitrate=N/A speed=7.54x    frame= 1309 fps=181 q=-0.0 size=N/A time=00:00:54.59 bitrate=N/A speed=7.56x    frame= 1403 fps=181 q=-0.0 size=N/A time=00:00:58.51 bitrate=N/A speed=7.55x    frame= 1496 fps=181 q=-0.0 size=N/A time=00:01:02.39 bitrate=N/A speed=7.56x    frame= 1585 fps=181 q=-0.0 size=N/A time=00:01:06.10 bitrate=N/A speed=7.54x    frame= 1699 fps=183 q=-0.0 size=N/A time=00:01:10.86 bitrate=N/A speed=7.63x    frame= 1791 fps=183 q=-0.0 size=N/A time=00:01:14.69 bitrate=N/A speed=7.62x    frame= 1898 fps=184 q=-0.0 size=N/A time=00:01:19.16 bitrate=N/A speed=7.67x    frame= 1996 fps=184 q=-0.0 size=N/A time=00:01:23.24 bitrate=N/A speed=7.68x    frame= 2092 fps=184 q=-0.0 size=N/A time=00:01:27.25 bitrate=N/A speed=7.69x    frame= 2189 fps=184 q=-0.0 size=N/A time=00:01:31.29 bitrate=N/A speed=7.69x    frame= 2287 fps=185 q=-0.0 size=N/A time=00:01:35.38 bitrate=N/A speed= 7.7x    frame= 2386 fps=185 q=-0.0 size=N/A time=00:01:39.51 bitrate=N/A speed=7.72x    frame= 2477 fps=185 q=-0.0 size=N/A time=00:01:43.31 bitrate=N/A speed= 7.7x    frame= 2583 fps=185 q=-0.0 size=N/A time=00:01:47.73 bitrate=N/A speed=7.74x    frame= 2677 fps=185 q=-0.0 size=N/A time=00:01:51.65 bitrate=N/A speed=7.73x    frame= 2764 fps=185 q=-0.0 size=N/A time=00:01:55.28 bitrate=N/A speed=7.71x    frame= 2859 fps=185 q=-0.0 size=N/A time=00:01:59.24 bitrate=N/A speed= 7.7x    frame= 2955 fps=185 q=-0.0 size=N/A time=00:02:03.24 bitrate=N/A speed=7.71x    frame= 3053 fps=185 q=-0.0 size=N/A time=00:02:07.33 bitrate=N/A speed=7.72x    frame= 3154 fps=185 q=-0.0 size=N/A time=00:02:11.54 bitrate=N/A speed=7.73x    frame= 3248 fps=185 q=-0.0 size=N/A time=00:02:15.46 bitrate=N/A speed=7.73x    frame= 3337 fps=185 q=-0.0 size=N/A time=00:02:19.18 bitrate=N/A speed=7.71x    frame= 3439 fps=185 q=-0.0 size=N/A time=00:02:23.43 bitrate=N/A speed=7.72x    frame= 3534 fps=185 q=-0.0 size=N/A time=00:02:27.39 bitrate=N/A speed=7.72x    frame= 3628 fps=185 q=-0.0 size=N/A time=00:02:31.31 bitrate=N/A speed=7.72x    frame= 3727 fps=185 q=-0.0 size=N/A time=00:02:35.44 bitrate=N/A speed=7.73x    frame= 3822 fps=185 q=-0.0 size=N/A time=00:02:39.40 bitrate=N/A speed=7.72x    frame= 3924 fps=186 q=-0.0 size=N/A time=00:02:43.66 bitrate=N/A speed=7.74x    frame= 4016 fps=185 q=-0.0 size=N/A time=00:02:47.50 bitrate=N/A speed=7.73x    frame= 4109 fps=185 q=-0.0 size=N/A time=00:02:51.37 bitrate=N/A speed=7.73x    frame= 4207 fps=185 q=-0.0 size=N/A time=00:02:55.46 bitrate=N/A speed=7.73x    frame= 4296 fps=185 q=-0.0 size=N/A time=00:02:59.17 bitrate=N/A speed=7.72x    frame= 4394 fps=185 q=-0.0 size=N/A time=00:03:03.26 bitrate=N/A speed=7.72x    frame= 4482 fps=185 q=-0.0 size=N/A time=00:03:06.93 bitrate=N/A speed=7.71x    frame= 4579 fps=185 q=-0.0 size=N/A time=00:03:10.98 bitrate=N/A speed=7.71x    frame= 4677 fps=185 q=-0.0 size=N/A time=00:03:15.06 bitrate=N/A speed=7.72x    frame= 4764 fps=185 q=-0.0 size=N/A time=00:03:18.69 bitrate=N/A speed=7.71x    frame= 4871 fps=185 q=-0.0 size=N/A time=00:03:23.16 bitrate=N/A speed=7.72x    frame= 4975 fps=185 q=-0.0 size=N/A time=00:03:27.49 bitrate=N/A speed=7.73x    frame= 5076 fps=186 q=-0.0 size=N/A time=00:03:31.71 bitrate=N/A speed=7.74x    frame= 5175 fps=186 q=-0.0 size=N/A time=00:03:35.84 bitrate=N/A speed=7.75x    frame= 5269 fps=186 q=-0.0 size=N/A time=00:03:39.76 bitrate=N/A speed=7.75x    frame= 5367 fps=186 q=-0.0 size=N/A time=00:03:43.84 bitrate=N/A speed=7.75x    frame= 5467 fps=186 q=-0.0 size=N/A time=00:03:48.01 bitrate=N/A speed=7.76x    frame= 5567 fps=186 q=-0.0 size=N/A time=00:03:52.19 bitrate=N/A speed=7.76x    frame= 5675 fps=187 q=-0.0 size=N/A time=00:03:56.69 bitrate=N/A speed=7.78x    frame= 5777 fps=187 q=-0.0 size=N/A time=00:04:00.94 bitrate=N/A speed=7.78x    frame= 5872 fps=187 q=-0.0 size=N/A time=00:04:04.91 bitrate=N/A speed=7.78x    frame= 5971 fps=187 q=-0.0 size=N/A time=00:04:09.04 bitrate=N/A speed=7.79x    frame= 6076 fps=187 q=-0.0 size=N/A time=00:04:13.41 bitrate=N/A speed= 7.8x    frame= 6177 fps=187 q=-0.0 size=N/A time=00:04:17.63 bitrate=N/A speed= 7.8x    frame= 6270 fps=187 q=-0.0 size=N/A time=00:04:21.51 bitrate=N/A speed= 7.8x    frame= 6386 fps=188 q=-0.0 size=N/A time=00:04:26.34 bitrate=N/A speed=7.82x    frame= 6477 fps=187 q=-0.0 size=N/A time=00:04:30.14 bitrate=N/A speed=7.82x    frame= 6574 fps=187 q=-0.0 size=N/A time=00:04:34.19 bitrate=N/A speed=7.82x    frame= 6685 fps=188 q=-0.0 size=N/A time=00:04:38.82 bitrate=N/A speed=7.83x    frame= 6786 fps=188 q=-0.0 size=N/A time=00:04:43.03 bitrate=N/A speed=7.84x    frame= 6888 fps=188 q=-0.0 size=N/A time=00:04:47.28 bitrate=N/A speed=7.85x    frame= 6979 fps=188 q=-0.0 size=N/A time=00:04:51.08 bitrate=N/A speed=7.84x    frame= 7092 fps=188 q=-0.0 size=N/A time=00:04:55.79 bitrate=N/A speed=7.86x    frame= 7185 fps=188 q=-0.0 size=N/A time=00:04:59.67 bitrate=N/A speed=7.85x    frame= 7293 fps=189 q=-0.0 size=N/A time=00:05:04.17 bitrate=N/A speed=7.86x    frame= 7390 fps=189 q=-0.0 size=N/A time=00:05:08.22 bitrate=N/A speed=7.87x    frame= 7493 fps=189 q=-0.0 size=N/A time=00:05:12.52 bitrate=N/A speed=7.87x    frame= 7583 fps=189 q=-0.0 size=N/A time=00:05:16.27 bitrate=N/A speed=7.86x    frame= 7684 fps=189 q=-0.0 size=N/A time=00:05:20.48 bitrate=N/A speed=7.87x    frame= 7776 fps=188 q=-0.0 size=N/A time=00:05:24.32 bitrate=N/A speed=7.86x    frame= 7867 fps=188 q=-0.0 size=N/A time=00:05:28.11 bitrate=N/A speed=7.85x    frame= 7964 fps=188 q=-0.0 size=N/A time=00:05:32.16 bitrate=N/A speed=7.86x    frame= 8064 fps=188 q=-0.0 size=N/A time=00:05:36.33 bitrate=N/A speed=7.86x    frame= 8163 fps=188 q=-0.0 size=N/A time=00:05:40.46 bitrate=N/A speed=7.86x    frame= 8257 fps=188 q=-0.0 size=N/A time=00:05:44.38 bitrate=N/A speed=7.86x    frame= 8354 fps=188 q=-0.0 size=N/A time=00:05:48.43 bitrate=N/A speed=7.86x    frame= 8448 fps=188 q=-0.0 size=N/A time=00:05:52.35 bitrate=N/A speed=7.85x    frame= 8548 fps=188 q=-0.0 size=N/A time=00:05:56.52 bitrate=N/A speed=7.86x    frame= 8649 fps=188 q=-0.0 size=N/A time=00:06:00.73 bitrate=N/A speed=7.86x    frame= 8745 fps=188 q=-0.0 size=N/A time=00:06:04.73 bitrate=N/A speed=7.86x    frame= 8852 fps=189 q=-0.0 size=N/A time=00:06:09.20 bitrate=N/A speed=7.87x    frame= 8949 fps=189 q=-0.0 size=N/A time=00:06:13.24 bitrate=N/A speed=7.87x    frame= 9050 fps=189 q=-0.0 size=N/A time=00:06:17.46 bitrate=N/A speed=7.87x    frame= 9152 fps=189 q=-0.0 size=N/A time=00:06:21.71 bitrate=N/A speed=7.87x    frame= 9252 fps=189 q=-0.0 size=N/A time=00:06:25.88 bitrate=N/A speed=7.87x    frame= 9354 fps=189 q=-0.0 size=N/A time=00:06:30.13 bitrate=N/A speed=7.88x    frame= 9454 fps=189 q=-0.0 size=N/A time=00:06:34.31 bitrate=N/A speed=7.88x    frame= 9562 fps=189 q=-0.0 size=N/A time=00:06:38.81 bitrate=N/A speed=7.89x    frame= 9652 fps=189 q=-0.0 size=N/A time=00:06:42.56 bitrate=N/A speed=7.88x    frame= 9756 fps=189 q=-0.0 size=N/A time=00:06:46.90 bitrate=N/A speed=7.89x    frame= 9868 fps=189 q=-0.0 size=N/A time=00:06:51.57 bitrate=N/A speed= 7.9x    frame= 9969 fps=189 q=-0.0 size=N/A time=00:06:55.79 bitrate=N/A speed= 7.9x    frame=10067 fps=189 q=-0.0 size=N/A time=00:06:59.87 bitrate=N/A speed= 7.9x    frame=10171 fps=190 q=-0.0 size=N/A time=00:07:04.21 bitrate=N/A speed= 7.9x    frame=10271 fps=190 q=-0.0 size=N/A time=00:07:08.38 bitrate=N/A speed=7.91x    frame=10370 fps=190 q=-0.0 size=N/A time=00:07:12.51 bitrate=N/A speed=7.91x    frame=10472 fps=190 q=-0.0 size=N/A time=00:07:16.76 bitrate=N/A speed=7.91x    frame=10570 fps=190 q=-0.0 size=N/A time=00:07:20.85 bitrate=N/A speed=7.91x    frame=10666 fps=190 q=-0.0 size=N/A time=00:07:24.86 bitrate=N/A speed=7.91x    frame=10775 fps=190 q=-0.0 size=N/A time=00:07:29.40 bitrate=N/A speed=7.92x    frame=10873 fps=190 q=-0.0 size=N/A time=00:07:33.49 bitrate=N/A speed=7.92x    frame=10972 fps=190 q=-0.0 size=N/A time=00:07:37.62 bitrate=N/A speed=7.92x    frame=11075 fps=190 q=-0.0 size=N/A time=00:07:41.91 bitrate=N/A speed=7.92x    frame=11175 fps=190 q=-0.0 size=N/A time=00:07:46.09 bitrate=N/A speed=7.92x    frame=11275 fps=190 q=-0.0 size=N/A time=00:07:50.26 bitrate=N/A speed=7.92x    frame=11367 fps=190 q=-0.0 size=N/A time=00:07:54.09 bitrate=N/A speed=7.92x    frame=11473 fps=190 q=-0.0 size=N/A time=00:07:58.51 bitrate=N/A speed=7.93x    frame=11569 fps=190 q=-0.0 size=N/A time=00:08:02.52 bitrate=N/A speed=7.93x    frame=11671 fps=190 q=-0.0 size=N/A time=00:08:06.77 bitrate=N/A speed=7.93x    frame=11771 fps=190 q=-0.0 size=N/A time=00:08:10.94 bitrate=N/A speed=7.93x    frame=11873 fps=190 q=-0.0 size=N/A time=00:08:15.20 bitrate=N/A speed=7.93x    frame=11968 fps=190 q=-0.0 size=N/A time=00:08:19.16 bitrate=N/A speed=7.93x    frame=12072 fps=190 q=-0.0 size=N/A time=00:08:23.50 bitrate=N/A speed=7.93x    frame=12164 fps=190 q=-0.0 size=N/A time=00:08:27.34 bitrate=N/A speed=7.93x    frame=12270 fps=190 q=-0.0 size=N/A time=00:08:31.76 bitrate=N/A speed=7.93x    frame=12369 fps=190 q=-0.0 size=N/A time=00:08:35.89 bitrate=N/A speed=7.94x    frame=12467 fps=190 q=-0.0 size=N/A time=00:08:39.97 bitrate=N/A speed=7.94x    frame=12561 fps=190 q=-0.0 size=N/A time=00:08:43.89 bitrate=N/A speed=7.93x    frame=12656 fps=190 q=-0.0 size=N/A time=00:08:47.86 bitrate=N/A speed=7.93x    frame=12758 fps=190 q=-0.0 size=N/A time=00:08:52.11 bitrate=N/A speed=7.93x    frame=12855 fps=190 q=-0.0 size=N/A time=00:08:56.16 bitrate=N/A speed=7.93x    frame=12952 fps=190 q=-0.0 size=N/A time=00:09:00.20 bitrate=N/A speed=7.93x    frame=13054 fps=190 q=-0.0 size=N/A time=00:09:04.46 bitrate=N/A speed=7.93x    frame=13146 fps=190 q=-0.0 size=N/A time=00:09:08.29 bitrate=N/A speed=7.93x    frame=13255 fps=190 q=-0.0 size=N/A time=00:09:12.84 bitrate=N/A speed=7.94x    frame=13354 fps=190 q=-0.0 size=N/A time=00:09:16.97 bitrate=N/A speed=7.94x    frame=13458 fps=190 q=-0.0 size=N/A time=00:09:21.31 bitrate=N/A speed=7.94x    frame=13555 fps=190 q=-0.0 size=N/A time=00:09:25.35 bitrate=N/A speed=7.94x    frame=13656 fps=190 q=-0.0 size=N/A time=00:09:29.56 bitrate=N/A speed=7.94x    frame=13758 fps=190 q=-0.0 size=N/A time=00:09:33.82 bitrate=N/A speed=7.94x    frame=13854 fps=190 q=-0.0 size=N/A time=00:09:37.82 bitrate=N/A speed=7.94x    frame=13959 fps=191 q=-0.0 size=N/A time=00:09:42.20 bitrate=N/A speed=7.95x    frame=14061 fps=191 q=-0.0 size=N/A time=00:09:46.46 bitrate=N/A speed=7.95x    frame=14161 fps=191 q=-0.0 size=N/A time=00:09:50.63 bitrate=N/A speed=7.95x    frame=14243 fps=190 q=-0.0 size=N/A time=00:09:54.05 bitrate=N/A speed=7.94x    frame=14361 fps=191 q=-0.0 size=N/A time=00:09:58.97 bitrate=N/A speed=7.95x    frame=14449 fps=191 q=-0.0 size=N/A time=00:10:02.64 bitrate=N/A speed=7.95x    frame=14551 fps=191 q=-0.0 size=N/A time=00:10:06.89 bitrate=N/A speed=7.95x    frame=14641 fps=190 q=-0.0 size=N/A time=00:10:10.65 bitrate=N/A speed=7.94x    frame=14744 fps=190 q=-0.0 size=N/A time=00:10:14.94 bitrate=N/A speed=7.94x    frame=14836 fps=190 q=-0.0 size=N/A time=00:10:18.78 bitrate=N/A speed=7.94x    frame=14945 fps=191 q=-0.0 size=N/A time=00:10:23.33 bitrate=N/A speed=7.95x    frame=15044 fps=191 q=-0.0 size=N/A time=00:10:27.46 bitrate=N/A speed=7.95x    frame=15145 fps=191 q=-0.0 size=N/A time=00:10:31.67 bitrate=N/A speed=7.95x    frame=15248 fps=191 q=-0.0 size=N/A time=00:10:35.96 bitrate=N/A speed=7.95x    frame=15347 fps=191 q=-0.0 size=N/A time=00:10:40.09 bitrate=N/A speed=7.95x    frame=15445 fps=191 q=-0.0 size=N/A time=00:10:44.18 bitrate=N/A speed=7.95x    frame=15550 fps=191 q=-0.0 size=N/A time=00:10:48.56 bitrate=N/A speed=7.95x    frame=15636 fps=191 q=-0.0 size=N/A time=00:10:52.15 bitrate=N/A speed=7.95x    frame=15748 fps=191 q=-0.0 size=N/A time=00:10:56.82 bitrate=N/A speed=7.96x    frame=15848 fps=191 q=-0.0 size=N/A time=00:11:00.99 bitrate=N/A speed=7.95x    frame=15947 fps=191 q=-0.0 size=N/A time=00:11:05.12 bitrate=N/A speed=7.96x    frame=16042 fps=191 q=-0.0 size=N/A time=00:11:09.08 bitrate=N/A speed=7.95x    frame=16141 fps=191 q=-0.0 size=N/A time=00:11:13.21 bitrate=N/A speed=7.95x    frame=16248 fps=191 q=-0.0 size=N/A time=00:11:17.67 bitrate=N/A speed=7.96x    frame=16348 fps=191 q=-0.0 size=N/A time=00:11:21.84 bitrate=N/A speed=7.96x    frame=16438 fps=191 q=-0.0 size=N/A time=00:11:25.60 bitrate=N/A speed=7.96x    frame=16542 fps=191 q=-0.0 size=N/A time=00:11:29.93 bitrate=N/A speed=7.96x    frame=16638 fps=191 q=-0.0 size=N/A time=00:11:33.94 bitrate=N/A speed=7.96x    frame=16737 fps=191 q=-0.0 size=N/A time=00:11:38.07 bitrate=N/A speed=7.96x    frame=16845 fps=191 q=-0.0 size=N/A time=00:11:42.57 bitrate=N/A speed=7.96x    frame=16947 fps=191 q=-0.0 size=N/A time=00:11:46.83 bitrate=N/A speed=7.96x    frame=17048 fps=191 q=-0.0 size=N/A time=00:11:51.04 bitrate=N/A speed=7.97x    frame=17155 fps=191 q=-0.0 size=N/A time=00:11:55.50 bitrate=N/A speed=7.97x    frame=17255 fps=191 q=-0.0 size=N/A time=00:11:59.67 bitrate=N/A speed=7.97x    frame=17359 fps=191 q=-0.0 size=N/A time=00:12:04.01 bitrate=N/A speed=7.97x    frame=17459 fps=191 q=-0.0 size=N/A time=00:12:08.18 bitrate=N/A speed=7.97x    frame=17560 fps=191 q=-0.0 size=N/A time=00:12:12.39 bitrate=N/A speed=7.97x    frame=17667 fps=191 q=-0.0 size=N/A time=00:12:16.86 bitrate=N/A speed=7.98x    frame=17765 fps=191 q=-0.0 size=N/A time=00:12:20.94 bitrate=N/A speed=7.98x    frame=17866 fps=191 q=-0.0 size=N/A time=00:12:25.16 bitrate=N/A speed=7.98x    frame=17958 fps=191 q=-0.0 size=N/A time=00:12:28.99 bitrate=N/A speed=7.98x    frame=18071 fps=191 q=-0.0 size=N/A time=00:12:33.71 bitrate=N/A speed=7.98x    frame=18171 fps=191 q=-0.0 size=N/A time=00:12:37.88 bitrate=N/A speed=7.98x    frame=18274 fps=191 q=-0.0 size=N/A time=00:12:42.17 bitrate=N/A speed=7.98x    frame=18366 fps=191 q=-0.0 size=N/A time=00:12:46.01 bitrate=N/A speed=7.98x    frame=18465 fps=191 q=-0.0 size=N/A time=00:12:50.14 bitrate=N/A speed=7.98x    frame=18567 fps=191 q=-0.0 size=N/A time=00:12:54.39 bitrate=N/A speed=7.98x    frame=18676 fps=191 q=-0.0 size=N/A time=00:12:58.94 bitrate=N/A speed=7.99x    frame=18773 fps=191 q=-0.0 size=N/A time=00:13:02.99 bitrate=N/A speed=7.99x    frame=18878 fps=192 q=-0.0 size=N/A time=00:13:07.36 bitrate=N/A speed=7.99x    frame=18979 fps=192 q=-0.0 size=N/A time=00:13:11.58 bitrate=N/A speed=7.99x    frame=19089 fps=192 q=-0.0 size=N/A time=00:13:16.17 bitrate=N/A speed=7.99x    frame=19189 fps=192 q=-0.0 size=N/A time=00:13:20.34 bitrate=N/A speed=7.99x    frame=19289 fps=192 q=-0.0 size=N/A time=00:13:24.51 bitrate=N/A speed=7.99x    frame=19397 fps=192 q=-0.0 size=N/A time=00:13:29.01 bitrate=N/A speed=   8x    frame=19498 fps=192 q=-0.0 size=N/A time=00:13:33.22 bitrate=N/A speed=   8x    frame=19584 fps=192 q=-0.0 size=N/A time=00:13:36.81 bitrate=N/A speed=7.99x    frame=19689 fps=192 q=-0.0 size=N/A time=00:13:41.19 bitrate=N/A speed=   8x    frame=19797 fps=192 q=-0.0 size=N/A time=00:13:45.69 bitrate=N/A speed=   8x    frame=19896 fps=192 q=-0.0 size=N/A time=00:13:49.82 bitrate=N/A speed=   8x    frame=19993 fps=192 q=-0.0 size=N/A time=00:13:53.87 bitrate=N/A speed=   8x    frame=20089 fps=192 q=-0.0 size=N/A time=00:13:57.87 bitrate=N/A speed=   8x    frame=20194 fps=192 q=-0.0 size=N/A time=00:14:02.25 bitrate=N/A speed=   8x    frame=20291 fps=192 q=-0.0 size=N/A time=00:14:06.30 bitrate=N/A speed=   8x    frame=20396 fps=192 q=-0.0 size=N/A time=00:14:10.68 bitrate=N/A speed=   8x    frame=20493 fps=192 q=-0.0 size=N/A time=00:14:14.72 bitrate=N/A speed=   8x    frame=20591 fps=192 q=-0.0 size=N/A time=00:14:18.81 bitrate=N/A speed=   8x    frame=20693 fps=192 q=-0.0 size=N/A time=00:14:23.07 bitrate=N/A speed=   8x    frame=20797 fps=192 q=-0.0 size=N/A time=00:14:27.40 bitrate=N/A speed=   8x    frame=20898 fps=192 q=-0.0 size=N/A time=00:14:31.62 bitrate=N/A speed=8.01x    frame=21004 fps=192 q=-0.0 size=N/A time=00:14:36.04 bitrate=N/A speed=8.01x    frame=21107 fps=192 q=-0.0 size=N/A time=00:14:40.33 bitrate=N/A speed=8.01x    frame=21199 fps=192 q=-0.0 size=N/A time=00:14:44.17 bitrate=N/A speed=8.01x    frame=21307 fps=192 q=-0.0 size=N/A time=00:14:48.67 bitrate=N/A speed=8.01x    frame=21420 fps=192 q=-0.0 size=N/A time=00:14:53.39 bitrate=N/A speed=8.02x    frame=21526 fps=192 q=-0.0 size=N/A time=00:14:57.81 bitrate=N/A speed=8.02x    frame=21621 fps=192 q=-0.0 size=N/A time=00:15:01.77 bitrate=N/A speed=8.02x    frame=21727 fps=192 q=-0.0 size=N/A time=00:15:06.19 bitrate=N/A speed=8.02x    frame=21831 fps=192 q=-0.0 size=N/A time=00:15:10.53 bitrate=N/A speed=8.02x    frame=21933 fps=192 q=-0.0 size=N/A time=00:15:14.78 bitrate=N/A speed=8.02x    frame=22041 fps=192 q=-0.0 size=N/A time=00:15:19.29 bitrate=N/A speed=8.02x    frame=22132 fps=192 q=-0.0 size=N/A time=00:15:23.08 bitrate=N/A speed=8.02x    frame=22239 fps=192 q=-0.0 size=N/A time=00:15:27.55 bitrate=N/A speed=8.03x    frame=22348 fps=192 q=-0.0 size=N/A time=00:15:32.09 bitrate=N/A speed=8.03x    frame=22442 fps=192 q=-0.0 size=N/A time=00:15:36.01 bitrate=N/A speed=8.03x    frame=22543 fps=192 q=-0.0 size=N/A time=00:15:40.23 bitrate=N/A speed=8.03x    frame=22640 fps=192 q=-0.0 size=N/A time=00:15:44.27 bitrate=N/A speed=8.03x    frame=22733 fps=192 q=-0.0 size=N/A time=00:15:48.15 bitrate=N/A speed=8.02x    frame=22838 fps=192 q=-0.0 size=N/A time=00:15:52.53 bitrate=N/A speed=8.03x    frame=22934 fps=192 q=-0.0 size=N/A time=00:15:56.53 bitrate=N/A speed=8.03x    frame=23037 fps=192 q=-0.0 size=N/A time=00:16:00.83 bitrate=N/A speed=8.03x    frame=23138 fps=192 q=-0.0 size=N/A time=00:16:05.04 bitrate=N/A speed=8.03x    frame=23240 fps=192 q=-0.0 size=N/A time=00:16:09.30 bitrate=N/A speed=8.03x    frame=23341 fps=192 q=-0.0 size=N/A time=00:16:13.51 bitrate=N/A speed=8.03x    frame=23433 fps=192 q=-0.0 size=N/A time=00:16:17.35 bitrate=N/A speed=8.03x    frame=23540 fps=192 q=-0.0 size=N/A time=00:16:21.81 bitrate=N/A speed=8.03x    frame=23631 fps=192 q=-0.0 size=N/A time=00:16:25.60 bitrate=N/A speed=8.03x    frame=23736 fps=192 q=-0.0 size=N/A time=00:16:29.98 bitrate=N/A speed=8.03x    frame=23840 fps=193 q=-0.0 size=N/A time=00:16:34.32 bitrate=N/A speed=8.03x    frame=23941 fps=193 q=-0.0 size=N/A time=00:16:38.53 bitrate=N/A speed=8.03x    frame=24041 fps=193 q=-0.0 size=N/A time=00:16:42.71 bitrate=N/A speed=8.03x    frame=24140 fps=193 q=-0.0 size=N/A time=00:16:46.83 bitrate=N/A speed=8.03x    frame=24240 fps=193 q=-0.0 size=N/A time=00:16:51.01 bitrate=N/A speed=8.03x    frame=24341 fps=193 q=-0.0 size=N/A time=00:16:55.22 bitrate=N/A speed=8.03x    frame=24440 fps=193 q=-0.0 size=N/A time=00:16:59.35 bitrate=N/A speed=8.03x    frame=24537 fps=193 q=-0.0 size=N/A time=00:17:03.39 bitrate=N/A speed=8.03x    frame=24637 fps=193 q=-0.0 size=N/A time=00:17:07.56 bitrate=N/A speed=8.03x    frame=24737 fps=193 q=-0.0 size=N/A time=00:17:11.73 bitrate=N/A speed=8.03x    frame=24850 fps=193 q=-0.0 size=N/A time=00:17:16.45 bitrate=N/A speed=8.04x    frame=24950 fps=193 q=-0.0 size=N/A time=00:17:20.62 bitrate=N/A speed=8.04x    frame=25046 fps=193 q=-0.0 size=N/A time=00:17:24.62 bitrate=N/A speed=8.03x    frame=25139 fps=193 q=-0.0 size=N/A time=00:17:28.50 bitrate=N/A speed=8.03x    frame=25244 fps=193 q=-0.0 size=N/A time=00:17:32.88 bitrate=N/A speed=8.03x    frame=25344 fps=193 q=-0.0 size=N/A time=00:17:37.05 bitrate=N/A speed=8.03x    frame=25450 fps=193 q=-0.0 size=N/A time=00:17:41.47 bitrate=N/A speed=8.04x    frame=25550 fps=193 q=-0.0 size=N/A time=00:17:45.64 bitrate=N/A speed=8.04x    frame=25654 fps=193 q=-0.0 size=N/A time=00:17:49.98 bitrate=N/A speed=8.04x    frame=25752 fps=193 q=-0.0 size=N/A time=00:17:54.07 bitrate=N/A speed=8.04x    frame=25845 fps=193 q=-0.0 size=N/A time=00:17:57.95 bitrate=N/A speed=8.04x    frame=25944 fps=193 q=-0.0 size=N/A time=00:18:02.08 bitrate=N/A speed=8.04x    frame=26045 fps=193 q=-0.0 size=N/A time=00:18:06.29 bitrate=N/A speed=8.04x    frame=26145 fps=193 q=-0.0 size=N/A time=00:18:10.46 bitrate=N/A speed=8.04x    frame=26237 fps=193 q=-0.0 size=N/A time=00:18:14.30 bitrate=N/A speed=8.03x    frame=26336 fps=193 q=-0.0 size=N/A time=00:18:18.43 bitrate=N/A speed=8.03x    frame=26434 fps=193 q=-0.0 size=N/A time=00:18:22.51 bitrate=N/A speed=8.03x    frame=26531 fps=193 q=-0.0 size=N/A time=00:18:26.56 bitrate=N/A speed=8.03x    frame=26645 fps=193 q=-0.0 size=N/A time=00:18:31.31 bitrate=N/A speed=8.04x    frame=26736 fps=193 q=-0.0 size=N/A time=00:18:35.11 bitrate=N/A speed=8.03x    frame=26833 fps=193 q=-0.0 size=N/A time=00:18:39.15 bitrate=N/A speed=8.03x    frame=26929 fps=193 q=-0.0 size=N/A time=00:18:43.16 bitrate=N/A speed=8.03x    frame=27022 fps=193 q=-0.0 size=N/A time=00:18:47.04 bitrate=N/A speed=8.03x    frame=27128 fps=193 q=-0.0 size=N/A time=00:18:51.46 bitrate=N/A speed=8.03x    frame=27226 fps=193 q=-0.0 size=N/A time=00:18:55.55 bitrate=N/A speed=8.03x    frame=27317 fps=193 q=-0.0 size=N/A time=00:18:59.34 bitrate=N/A speed=8.03x    frame=27416 fps=193 q=-0.0 size=N/A time=00:19:03.47 bitrate=N/A speed=8.03x    frame=27518 fps=193 q=-0.0 size=N/A time=00:19:07.72 bitrate=N/A speed=8.03x    frame=27614 fps=193 q=-0.0 size=N/A time=00:19:11.73 bitrate=N/A speed=8.03x    frame=27719 fps=193 q=-0.0 size=N/A time=00:19:16.11 bitrate=N/A speed=8.03x    frame=27814 fps=193 q=-0.0 size=N/A time=00:19:20.07 bitrate=N/A speed=8.03x    frame=27925 fps=193 q=-0.0 size=N/A time=00:19:24.70 bitrate=N/A speed=8.03x    frame=28025 fps=193 q=-0.0 size=N/A time=00:19:28.87 bitrate=N/A speed=8.03x    frame=28132 fps=193 q=-0.0 size=N/A time=00:19:33.33 bitrate=N/A speed=8.04x    frame=28238 fps=193 q=-0.0 size=N/A time=00:19:37.75 bitrate=N/A speed=8.04x    frame=28339 fps=193 q=-0.0 size=N/A time=00:19:41.97 bitrate=N/A speed=8.04x    frame=28440 fps=193 q=-0.0 size=N/A time=00:19:46.18 bitrate=N/A speed=8.04x    frame=28541 fps=193 q=-0.0 size=N/A time=00:19:50.39 bitrate=N/A speed=8.04x    frame=28646 fps=193 q=-0.0 size=N/A time=00:19:54.77 bitrate=N/A speed=8.04x    frame=28740 fps=193 q=-0.0 size=N/A time=00:19:58.69 bitrate=N/A speed=8.04x    frame=28849 fps=193 q=-0.0 size=N/A time=00:20:03.24 bitrate=N/A speed=8.04x    frame=28949 fps=193 q=-0.0 size=N/A time=00:20:07.41 bitrate=N/A speed=8.04x    frame=29050 fps=193 q=-0.0 size=N/A time=00:20:11.62 bitrate=N/A speed=8.04x    frame=29156 fps=193 q=-0.0 size=N/A time=00:20:16.04 bitrate=N/A speed=8.04x    frame=29255 fps=193 q=-0.0 size=N/A time=00:20:20.17 bitrate=N/A speed=8.04x    frame=29346 fps=193 q=-0.0 size=N/A time=00:20:23.97 bitrate=N/A speed=8.04x    frame=29450 fps=193 q=-0.0 size=N/A time=00:20:28.31 bitrate=N/A speed=8.04x    frame=29546 fps=193 q=-0.0 size=N/A time=00:20:32.31 bitrate=N/A speed=8.04x    frame=29647 fps=193 q=-0.0 size=N/A time=00:20:36.52 bitrate=N/A speed=8.04x    frame=29748 fps=193 q=-0.0 size=N/A time=00:20:40.73 bitrate=N/A speed=8.04x    frame=29842 fps=193 q=-0.0 size=N/A time=00:20:44.66 bitrate=N/A speed=8.04x    frame=29935 fps=193 q=-0.0 size=N/A time=00:20:48.53 bitrate=N/A speed=8.04x    frame=30034 fps=193 q=-0.0 size=N/A time=00:20:52.66 bitrate=N/A speed=8.04x    frame=30131 fps=193 q=-0.0 size=N/A time=00:20:56.71 bitrate=N/A speed=8.04x    frame=30224 fps=193 q=-0.0 size=N/A time=00:21:00.59 bitrate=N/A speed=8.04x    frame=30330 fps=193 q=-0.0 size=N/A time=00:21:05.01 bitrate=N/A speed=8.04x    frame=30424 fps=193 q=-0.0 size=N/A time=00:21:08.93 bitrate=N/A speed=8.04x    frame=30521 fps=193 q=-0.0 size=N/A time=00:21:12.98 bitrate=N/A speed=8.04x    frame=30615 fps=193 q=-0.0 size=N/A time=00:21:16.90 bitrate=N/A speed=8.04x    frame=30710 fps=193 q=-0.0 size=N/A time=00:21:20.86 bitrate=N/A speed=8.03x    frame=30811 fps=193 q=-0.0 size=N/A time=00:21:25.07 bitrate=N/A speed=8.03x    frame=30906 fps=193 q=-0.0 size=N/A time=00:21:29.03 bitrate=N/A speed=8.03x    frame=31008 fps=193 q=-0.0 size=N/A time=00:21:33.29 bitrate=N/A speed=8.03x    frame=31105 fps=193 q=-0.0 size=N/A time=00:21:37.33 bitrate=N/A speed=8.03x    frame=31201 fps=193 q=-0.0 size=N/A time=00:21:41.34 bitrate=N/A speed=8.03x    frame=31300 fps=193 q=-0.0 size=N/A time=00:21:45.47 bitrate=N/A speed=8.03x    frame=31395 fps=193 q=-0.0 size=N/A time=00:21:49.43 bitrate=N/A speed=8.03x    frame=31486 fps=193 q=-0.0 size=N/A time=00:21:53.22 bitrate=N/A speed=8.03x    frame=31586 fps=193 q=-0.0 size=N/A time=00:21:57.39 bitrate=N/A speed=8.03x    frame=31691 fps=193 q=-0.0 size=N/A time=00:22:01.77 bitrate=N/A speed=8.03x    frame=31790 fps=193 q=-0.0 size=N/A time=00:22:05.90 bitrate=N/A speed=8.03x    frame=31886 fps=193 q=-0.0 size=N/A time=00:22:09.91 bitrate=N/A speed=8.03x    frame=31985 fps=193 q=-0.0 size=N/A time=00:22:14.04 bitrate=N/A speed=8.03x    frame=32082 fps=193 q=-0.0 size=N/A time=00:22:18.08 bitrate=N/A speed=8.03x    frame=32177 fps=192 q=-0.0 size=N/A time=00:22:22.04 bitrate=N/A speed=8.03x    frame=32271 fps=192 q=-0.0 size=N/A time=00:22:25.96 bitrate=N/A speed=8.03x    frame=32364 fps=192 q=-0.0 size=N/A time=00:22:29.84 bitrate=N/A speed=8.03x    frame=32461 fps=192 q=-0.0 size=N/A time=00:22:33.89 bitrate=N/A speed=8.02x    frame=32546 fps=192 q=-0.0 size=N/A time=00:22:37.43 bitrate=N/A speed=8.02x    frame=32645 fps=192 q=-0.0 size=N/A time=00:22:41.56 bitrate=N/A speed=8.02x    frame=32737 fps=192 q=-0.0 size=N/A time=00:22:45.40 bitrate=N/A speed=8.02x    frame=32840 fps=192 q=-0.0 size=N/A time=00:22:49.70 bitrate=N/A speed=8.02x    frame=32939 fps=192 q=-0.0 size=N/A time=00:22:53.83 bitrate=N/A speed=8.02x    frame=33042 fps=192 q=-0.0 size=N/A time=00:22:58.12 bitrate=N/A speed=8.02x    frame=33144 fps=192 q=-0.0 size=N/A time=00:23:02.38 bitrate=N/A speed=8.02x    frame=33234 fps=192 q=-0.0 size=N/A time=00:23:06.13 bitrate=N/A speed=8.02x    frame=33333 fps=192 q=-0.0 size=N/A time=00:23:10.26 bitrate=N/A speed=8.02x    frame=33432 fps=192 q=-0.0 size=N/A time=00:23:14.39 bitrate=N/A speed=8.02x    frame=33526 fps=192 q=-0.0 size=N/A time=00:23:18.31 bitrate=N/A speed=8.02x    frame=33631 fps=192 q=-0.0 size=N/A time=00:23:22.69 bitrate=N/A speed=8.02x    frame=33730 fps=192 q=-0.0 size=N/A time=00:23:26.82 bitrate=N/A speed=8.02x    frame=33826 fps=192 q=-0.0 size=N/A time=00:23:30.82 bitrate=N/A speed=8.02x    frame=33926 fps=192 q=-0.0 size=N/A time=00:23:34.99 bitrate=N/A speed=8.02x    frame=34024 fps=192 q=-0.0 size=N/A time=00:23:39.08 bitrate=N/A speed=8.02x    [Parsed_ssim_10 @ 00000268f72bdc80] SSIM Y:0.992007 (20.973018) U:0.993393 (21.799876) V:0.993651 (21.973201) All:0.992512 (21.256448)
[out#0/null @ 00000268f4c2dec0] video:14647KiB audio:266584KiB subtitle:0KiB other streams:0KiB global headers:0KiB muxing overhead: unknown
frame=34087 fps=192 q=-0.0 Lsize=N/A time=00:23:41.71 bitrate=N/A speed=8.02x    
